# xmcd
#
# Track frame offsets:
#	150
#	14414
#	24824
#	41432
#	61233
#	74562
#	89636
#	99358
#	111158
#	122917
#
# Disc length: 1849 seconds
#
# Revision: 1
# Processed by: cddbd v1.5.2PL0 Copyright (c) Steve Scherf et al.
# Submitted via: audiograbber 1.83.01
#
DISCID=8007370a
DTITLE=Justified - I Love To Tell
DYEAR=2010
DGENRE=Gospel
TTITLE0=I Love To Tell
TTITLE1=When I Cross
TTITLE2=Never Failed Me Yet
TTITLE3=Trade This Old Body
TTITLE4=When I Rested In The Lord
TTITLE5=Angels Are Waiting
TTITLE6=It's A Wonderful Life
TTITLE7=God Made A Way
TTITLE8=This Old Sinner Testifies
TTITLE9=This Would Be The Day
EXTD=
EXTT0=
EXTT1=
EXTT2=
EXTT3=
EXTT4=
EXTT5=
EXTT6=
EXTT7=
EXTT8=
EXTT9=
PLAYORDER=
